<mxfile host="app.diagrams.net" modified="2023-10-16T02:59:44.977Z" agent="Mozilla/5.0 (Windows NT 10.0; Win64; x64) AppleWebKit/537.36 (KHTML, like Gecko) Chrome/117.0.0.0 Safari/537.36" etag="aWVA_QkUcuc0byMY__oo" version="22.0.4" type="github">
  <diagram name="Page-1" id="skhu2Xdsm_vvQN_JcCo6">
    <mxGraphModel dx="4102" dy="1460" grid="1" gridSize="10" guides="1" tooltips="1" connect="1" arrows="1" fold="1" page="1" pageScale="1" pageWidth="1169" pageHeight="827" math="0" shadow="0">
      <root>
        <mxCell id="0" />
        <mxCell id="1" parent="0" />
        <mxCell id="Cfwt913eoUueuza_iOJh-1" value="&lt;font style=&quot;font-size: 15px;&quot;&gt;Home&lt;/font&gt;" style="rounded=0;whiteSpace=wrap;html=1;" vertex="1" parent="1">
          <mxGeometry x="484" y="10" width="200" height="60" as="geometry" />
        </mxCell>
        <mxCell id="Cfwt913eoUueuza_iOJh-2" value="&lt;font style=&quot;font-size: 15px;&quot;&gt;Contractor/Service Provider Sign Up&lt;/font&gt;" style="rounded=0;whiteSpace=wrap;html=1;" vertex="1" parent="1">
          <mxGeometry x="64" y="110" width="200" height="60" as="geometry" />
        </mxCell>
        <mxCell id="Cfwt913eoUueuza_iOJh-3" value="Content (About Website, Guide on Website Use)" style="rounded=0;whiteSpace=wrap;html=1;" vertex="1" parent="1">
          <mxGeometry x="484" y="110" width="200" height="60" as="geometry" />
        </mxCell>
        <mxCell id="Cfwt913eoUueuza_iOJh-4" value="Customer Sign Up" style="rounded=0;whiteSpace=wrap;html=1;" vertex="1" parent="1">
          <mxGeometry x="950" y="110" width="200" height="60" as="geometry" />
        </mxCell>
        <mxCell id="Cfwt913eoUueuza_iOJh-5" value="" style="endArrow=none;html=1;rounded=0;entryX=0.5;entryY=1;entryDx=0;entryDy=0;exitX=0.5;exitY=0;exitDx=0;exitDy=0;" edge="1" parent="1" source="Cfwt913eoUueuza_iOJh-2" target="Cfwt913eoUueuza_iOJh-1">
          <mxGeometry width="50" height="50" relative="1" as="geometry">
            <mxPoint x="344" y="50" as="sourcePoint" />
            <mxPoint x="394" as="targetPoint" />
            <Array as="points">
              <mxPoint x="164" y="80" />
              <mxPoint x="584" y="80" />
            </Array>
          </mxGeometry>
        </mxCell>
        <mxCell id="Cfwt913eoUueuza_iOJh-7" value="" style="endArrow=none;html=1;rounded=0;entryX=0.5;entryY=1;entryDx=0;entryDy=0;exitX=0.5;exitY=0;exitDx=0;exitDy=0;" edge="1" parent="1" source="Cfwt913eoUueuza_iOJh-3" target="Cfwt913eoUueuza_iOJh-1">
          <mxGeometry width="50" height="50" relative="1" as="geometry">
            <mxPoint x="584" y="110" as="sourcePoint" />
            <mxPoint x="634" y="80" as="targetPoint" />
          </mxGeometry>
        </mxCell>
        <mxCell id="Cfwt913eoUueuza_iOJh-8" value="" style="endArrow=none;html=1;rounded=0;entryX=0.5;entryY=1;entryDx=0;entryDy=0;exitX=0.5;exitY=0;exitDx=0;exitDy=0;" edge="1" parent="1" source="Cfwt913eoUueuza_iOJh-4" target="Cfwt913eoUueuza_iOJh-1">
          <mxGeometry width="50" height="50" relative="1" as="geometry">
            <mxPoint x="594" y="120" as="sourcePoint" />
            <mxPoint x="594" y="80" as="targetPoint" />
            <Array as="points">
              <mxPoint x="1050" y="80" />
              <mxPoint x="584" y="80" />
            </Array>
          </mxGeometry>
        </mxCell>
        <mxCell id="Cfwt913eoUueuza_iOJh-10" value="Invalid Postcode" style="rounded=0;whiteSpace=wrap;html=1;" vertex="1" parent="1">
          <mxGeometry x="1170" y="200" width="200" height="60" as="geometry" />
        </mxCell>
        <mxCell id="Cfwt913eoUueuza_iOJh-11" value="Customer Login" style="rounded=0;whiteSpace=wrap;html=1;" vertex="1" parent="1">
          <mxGeometry x="950" y="200" width="200" height="60" as="geometry" />
        </mxCell>
        <mxCell id="Cfwt913eoUueuza_iOJh-12" value="" style="endArrow=none;html=1;rounded=0;entryX=0.5;entryY=0;entryDx=0;entryDy=0;exitX=0.5;exitY=1;exitDx=0;exitDy=0;" edge="1" parent="1" source="Cfwt913eoUueuza_iOJh-4" target="Cfwt913eoUueuza_iOJh-11">
          <mxGeometry width="50" height="50" relative="1" as="geometry">
            <mxPoint x="820" y="310" as="sourcePoint" />
            <mxPoint x="860" y="290" as="targetPoint" />
          </mxGeometry>
        </mxCell>
        <mxCell id="Cfwt913eoUueuza_iOJh-13" value="" style="endArrow=none;html=1;rounded=0;entryX=0;entryY=0.5;entryDx=0;entryDy=0;exitX=1;exitY=0.5;exitDx=0;exitDy=0;" edge="1" parent="1" source="Cfwt913eoUueuza_iOJh-11" target="Cfwt913eoUueuza_iOJh-10">
          <mxGeometry width="50" height="50" relative="1" as="geometry">
            <mxPoint x="1060" y="180" as="sourcePoint" />
            <mxPoint x="1060" y="210" as="targetPoint" />
          </mxGeometry>
        </mxCell>
        <mxCell id="Cfwt913eoUueuza_iOJh-15" value="Check Bookings" style="rounded=0;whiteSpace=wrap;html=1;" vertex="1" parent="1">
          <mxGeometry x="950" y="290" width="200" height="60" as="geometry" />
        </mxCell>
        <mxCell id="Cfwt913eoUueuza_iOJh-16" value="Book a Repair" style="rounded=0;whiteSpace=wrap;html=1;" vertex="1" parent="1">
          <mxGeometry x="598" y="290" width="200" height="60" as="geometry" />
        </mxCell>
        <mxCell id="Cfwt913eoUueuza_iOJh-17" value="Completed Booking/History" style="rounded=0;whiteSpace=wrap;html=1;" vertex="1" parent="1">
          <mxGeometry x="1287" y="290" width="200" height="60" as="geometry" />
        </mxCell>
        <mxCell id="Cfwt913eoUueuza_iOJh-18" value="" style="endArrow=none;html=1;rounded=0;entryX=0.5;entryY=1;entryDx=0;entryDy=0;exitX=0.5;exitY=0;exitDx=0;exitDy=0;" edge="1" parent="1" source="Cfwt913eoUueuza_iOJh-15" target="Cfwt913eoUueuza_iOJh-11">
          <mxGeometry width="50" height="50" relative="1" as="geometry">
            <mxPoint x="1020" y="320" as="sourcePoint" />
            <mxPoint x="1070" y="270" as="targetPoint" />
          </mxGeometry>
        </mxCell>
        <mxCell id="Cfwt913eoUueuza_iOJh-19" value="" style="endArrow=none;html=1;rounded=0;entryX=0.5;entryY=1;entryDx=0;entryDy=0;exitX=0.5;exitY=0;exitDx=0;exitDy=0;" edge="1" parent="1" source="Cfwt913eoUueuza_iOJh-16" target="Cfwt913eoUueuza_iOJh-11">
          <mxGeometry width="50" height="50" relative="1" as="geometry">
            <mxPoint x="1060" y="300" as="sourcePoint" />
            <mxPoint x="1060" y="270" as="targetPoint" />
            <Array as="points">
              <mxPoint x="698" y="270" />
              <mxPoint x="1050" y="270" />
            </Array>
          </mxGeometry>
        </mxCell>
        <mxCell id="Cfwt913eoUueuza_iOJh-20" value="" style="endArrow=none;html=1;rounded=0;entryX=0.5;entryY=1;entryDx=0;entryDy=0;exitX=0.5;exitY=0;exitDx=0;exitDy=0;" edge="1" parent="1" source="Cfwt913eoUueuza_iOJh-17" target="Cfwt913eoUueuza_iOJh-11">
          <mxGeometry width="50" height="50" relative="1" as="geometry">
            <mxPoint x="1190" y="360" as="sourcePoint" />
            <mxPoint x="1240" y="310" as="targetPoint" />
            <Array as="points">
              <mxPoint x="1387" y="270" />
              <mxPoint x="1050" y="270" />
            </Array>
          </mxGeometry>
        </mxCell>
        <mxCell id="Cfwt913eoUueuza_iOJh-21" value="Service Selection" style="rounded=0;whiteSpace=wrap;html=1;" vertex="1" parent="1">
          <mxGeometry x="598" y="370" width="200" height="60" as="geometry" />
        </mxCell>
        <mxCell id="Cfwt913eoUueuza_iOJh-22" value="" style="endArrow=none;html=1;rounded=0;entryX=0.5;entryY=1;entryDx=0;entryDy=0;exitX=0.5;exitY=0;exitDx=0;exitDy=0;" edge="1" parent="1" source="Cfwt913eoUueuza_iOJh-21" target="Cfwt913eoUueuza_iOJh-16">
          <mxGeometry width="50" height="50" relative="1" as="geometry">
            <mxPoint x="508" y="390" as="sourcePoint" />
            <mxPoint x="558" y="340" as="targetPoint" />
          </mxGeometry>
        </mxCell>
        <mxCell id="Cfwt913eoUueuza_iOJh-23" value="Booking Request Form and Acknowledgement of Booking Request" style="rounded=0;whiteSpace=wrap;html=1;" vertex="1" parent="1">
          <mxGeometry x="598" y="450" width="200" height="60" as="geometry" />
        </mxCell>
        <mxCell id="Cfwt913eoUueuza_iOJh-24" value="" style="endArrow=none;html=1;rounded=0;entryX=0.5;entryY=1;entryDx=0;entryDy=0;exitX=0.5;exitY=0;exitDx=0;exitDy=0;" edge="1" parent="1" source="Cfwt913eoUueuza_iOJh-23" target="Cfwt913eoUueuza_iOJh-21">
          <mxGeometry width="50" height="50" relative="1" as="geometry">
            <mxPoint x="628" y="520" as="sourcePoint" />
            <mxPoint x="678" y="470" as="targetPoint" />
          </mxGeometry>
        </mxCell>
        <mxCell id="Cfwt913eoUueuza_iOJh-25" value="Pending Booking" style="rounded=0;whiteSpace=wrap;html=1;" vertex="1" parent="1">
          <mxGeometry x="841" y="370" width="200" height="60" as="geometry" />
        </mxCell>
        <mxCell id="Cfwt913eoUueuza_iOJh-26" value="Confirmed Booking" style="rounded=0;whiteSpace=wrap;html=1;" vertex="1" parent="1">
          <mxGeometry x="1061" y="370" width="200" height="60" as="geometry" />
        </mxCell>
        <mxCell id="Cfwt913eoUueuza_iOJh-27" value="" style="endArrow=none;html=1;rounded=0;entryX=0.5;entryY=1;entryDx=0;entryDy=0;exitX=0.5;exitY=0;exitDx=0;exitDy=0;" edge="1" parent="1" source="Cfwt913eoUueuza_iOJh-25">
          <mxGeometry width="50" height="50" relative="1" as="geometry">
            <mxPoint x="945" y="370" as="sourcePoint" />
            <mxPoint x="1050" y="350" as="targetPoint" />
            <Array as="points">
              <mxPoint x="941" y="360" />
              <mxPoint x="1050" y="360" />
            </Array>
          </mxGeometry>
        </mxCell>
        <mxCell id="Cfwt913eoUueuza_iOJh-28" value="" style="endArrow=none;html=1;rounded=0;entryX=0.5;entryY=1;entryDx=0;entryDy=0;exitX=0.5;exitY=0;exitDx=0;exitDy=0;" edge="1" parent="1" source="Cfwt913eoUueuza_iOJh-26" target="Cfwt913eoUueuza_iOJh-15">
          <mxGeometry width="50" height="50" relative="1" as="geometry">
            <mxPoint x="1057" y="410" as="sourcePoint" />
            <mxPoint x="1107" y="360" as="targetPoint" />
            <Array as="points">
              <mxPoint x="1161" y="360" />
              <mxPoint x="1050" y="360" />
            </Array>
          </mxGeometry>
        </mxCell>
        <mxCell id="Cfwt913eoUueuza_iOJh-29" value="Edit/Cancel Booking" style="rounded=0;whiteSpace=wrap;html=1;" vertex="1" parent="1">
          <mxGeometry x="841" y="450" width="200" height="60" as="geometry" />
        </mxCell>
        <mxCell id="Cfwt913eoUueuza_iOJh-30" value="" style="endArrow=none;html=1;rounded=0;entryX=0.5;entryY=1;entryDx=0;entryDy=0;exitX=0.5;exitY=0;exitDx=0;exitDy=0;" edge="1" parent="1" source="Cfwt913eoUueuza_iOJh-29" target="Cfwt913eoUueuza_iOJh-25">
          <mxGeometry width="50" height="50" relative="1" as="geometry">
            <mxPoint x="917" y="450" as="sourcePoint" />
            <mxPoint x="967" y="400" as="targetPoint" />
          </mxGeometry>
        </mxCell>
        <mxCell id="Cfwt913eoUueuza_iOJh-31" value="Rate &amp;amp; Review" style="rounded=0;whiteSpace=wrap;html=1;" vertex="1" parent="1">
          <mxGeometry x="1287" y="370" width="200" height="60" as="geometry" />
        </mxCell>
        <mxCell id="Cfwt913eoUueuza_iOJh-32" value="" style="endArrow=none;html=1;rounded=0;entryX=0.5;entryY=1;entryDx=0;entryDy=0;exitX=0.5;exitY=0;exitDx=0;exitDy=0;" edge="1" parent="1" source="Cfwt913eoUueuza_iOJh-31" target="Cfwt913eoUueuza_iOJh-17">
          <mxGeometry width="50" height="50" relative="1" as="geometry">
            <mxPoint x="1347" y="420" as="sourcePoint" />
            <mxPoint x="1397" y="370" as="targetPoint" />
          </mxGeometry>
        </mxCell>
        <mxCell id="Cfwt913eoUueuza_iOJh-33" value="&lt;font style=&quot;font-size: 15px;&quot;&gt;Contractor/Service Provider Login&lt;/font&gt;" style="rounded=0;whiteSpace=wrap;html=1;" vertex="1" parent="1">
          <mxGeometry x="64" y="200" width="200" height="60" as="geometry" />
        </mxCell>
        <mxCell id="Cfwt913eoUueuza_iOJh-34" value="" style="endArrow=none;html=1;rounded=0;entryX=0.5;entryY=1;entryDx=0;entryDy=0;exitX=0.5;exitY=0;exitDx=0;exitDy=0;" edge="1" parent="1" source="Cfwt913eoUueuza_iOJh-33" target="Cfwt913eoUueuza_iOJh-2">
          <mxGeometry width="50" height="50" relative="1" as="geometry">
            <mxPoint x="-26" y="320" as="sourcePoint" />
            <mxPoint x="24" y="270" as="targetPoint" />
          </mxGeometry>
        </mxCell>
        <mxCell id="Cfwt913eoUueuza_iOJh-35" value="Check Bookings" style="rounded=0;whiteSpace=wrap;html=1;" vertex="1" parent="1">
          <mxGeometry x="63.5" y="290" width="200" height="60" as="geometry" />
        </mxCell>
        <mxCell id="Cfwt913eoUueuza_iOJh-36" value="Incoming Requests" style="rounded=0;whiteSpace=wrap;html=1;" vertex="1" parent="1">
          <mxGeometry x="-221.5" y="290" width="200" height="60" as="geometry" />
        </mxCell>
        <mxCell id="Cfwt913eoUueuza_iOJh-37" value="Completed Booking/History" style="rounded=0;whiteSpace=wrap;html=1;" vertex="1" parent="1">
          <mxGeometry x="354" y="290" width="200" height="60" as="geometry" />
        </mxCell>
        <mxCell id="Cfwt913eoUueuza_iOJh-38" value="Submit Quotation" style="rounded=0;whiteSpace=wrap;html=1;" vertex="1" parent="1">
          <mxGeometry x="-221.5" y="370" width="200" height="60" as="geometry" />
        </mxCell>
        <mxCell id="Cfwt913eoUueuza_iOJh-39" value="" style="endArrow=none;html=1;rounded=0;entryX=0.5;entryY=1;entryDx=0;entryDy=0;exitX=0.5;exitY=0;exitDx=0;exitDy=0;" edge="1" source="Cfwt913eoUueuza_iOJh-38" target="Cfwt913eoUueuza_iOJh-36" parent="1">
          <mxGeometry width="50" height="50" relative="1" as="geometry">
            <mxPoint x="-311.5" y="390" as="sourcePoint" />
            <mxPoint x="-261.5" y="340" as="targetPoint" />
          </mxGeometry>
        </mxCell>
        <mxCell id="Cfwt913eoUueuza_iOJh-40" value="Preview and Submit Confirmation" style="rounded=0;whiteSpace=wrap;html=1;" vertex="1" parent="1">
          <mxGeometry x="-221.5" y="450" width="200" height="60" as="geometry" />
        </mxCell>
        <mxCell id="Cfwt913eoUueuza_iOJh-41" value="" style="endArrow=none;html=1;rounded=0;entryX=0.5;entryY=1;entryDx=0;entryDy=0;exitX=0.5;exitY=0;exitDx=0;exitDy=0;" edge="1" source="Cfwt913eoUueuza_iOJh-40" target="Cfwt913eoUueuza_iOJh-38" parent="1">
          <mxGeometry width="50" height="50" relative="1" as="geometry">
            <mxPoint x="-191.5" y="520" as="sourcePoint" />
            <mxPoint x="-141.5" y="470" as="targetPoint" />
          </mxGeometry>
        </mxCell>
        <mxCell id="Cfwt913eoUueuza_iOJh-44" value="" style="endArrow=none;html=1;rounded=0;entryX=0.5;entryY=1;entryDx=0;entryDy=0;exitX=0.5;exitY=0;exitDx=0;exitDy=0;" edge="1" source="Cfwt913eoUueuza_iOJh-46" parent="1">
          <mxGeometry width="50" height="50" relative="1" as="geometry">
            <mxPoint x="54.5" y="370" as="sourcePoint" />
            <mxPoint x="163.5" y="350" as="targetPoint" />
            <Array as="points">
              <mxPoint x="163.5" y="360" />
            </Array>
          </mxGeometry>
        </mxCell>
        <mxCell id="Cfwt913eoUueuza_iOJh-46" value="Contact Customer" style="rounded=0;whiteSpace=wrap;html=1;" vertex="1" parent="1">
          <mxGeometry x="63.5" y="370" width="200" height="60" as="geometry" />
        </mxCell>
        <mxCell id="Cfwt913eoUueuza_iOJh-48" value="Rate &amp;amp; Review" style="rounded=0;whiteSpace=wrap;html=1;" vertex="1" parent="1">
          <mxGeometry x="354" y="370" width="200" height="60" as="geometry" />
        </mxCell>
        <mxCell id="Cfwt913eoUueuza_iOJh-49" value="" style="endArrow=none;html=1;rounded=0;entryX=0.5;entryY=1;entryDx=0;entryDy=0;exitX=0.5;exitY=0;exitDx=0;exitDy=0;" edge="1" source="Cfwt913eoUueuza_iOJh-48" target="Cfwt913eoUueuza_iOJh-37" parent="1">
          <mxGeometry width="50" height="50" relative="1" as="geometry">
            <mxPoint x="414" y="420" as="sourcePoint" />
            <mxPoint x="464" y="370" as="targetPoint" />
          </mxGeometry>
        </mxCell>
        <mxCell id="Cfwt913eoUueuza_iOJh-50" value="Reject Request" style="rounded=0;whiteSpace=wrap;html=1;" vertex="1" parent="1">
          <mxGeometry x="-450" y="370" width="200" height="60" as="geometry" />
        </mxCell>
        <mxCell id="Cfwt913eoUueuza_iOJh-52" value="" style="endArrow=none;html=1;rounded=0;exitX=0.5;exitY=0;exitDx=0;exitDy=0;" edge="1" parent="1" source="Cfwt913eoUueuza_iOJh-50">
          <mxGeometry width="50" height="50" relative="1" as="geometry">
            <mxPoint x="-357" y="350" as="sourcePoint" />
            <mxPoint x="-122" y="350" as="targetPoint" />
            <Array as="points">
              <mxPoint x="-350" y="360" />
              <mxPoint x="-122" y="360" />
            </Array>
          </mxGeometry>
        </mxCell>
        <mxCell id="Cfwt913eoUueuza_iOJh-53" value="" style="endArrow=none;html=1;rounded=0;entryX=0.5;entryY=1;entryDx=0;entryDy=0;exitX=0.496;exitY=0.005;exitDx=0;exitDy=0;exitPerimeter=0;" edge="1" parent="1" source="Cfwt913eoUueuza_iOJh-36" target="Cfwt913eoUueuza_iOJh-33">
          <mxGeometry width="50" height="50" relative="1" as="geometry">
            <mxPoint x="-46" y="300" as="sourcePoint" />
            <mxPoint x="4" y="250" as="targetPoint" />
            <Array as="points">
              <mxPoint x="-122" y="270" />
              <mxPoint x="164" y="270" />
            </Array>
          </mxGeometry>
        </mxCell>
        <mxCell id="Cfwt913eoUueuza_iOJh-55" value="" style="endArrow=none;html=1;rounded=0;entryX=0.5;entryY=1;entryDx=0;entryDy=0;exitX=0.5;exitY=0;exitDx=0;exitDy=0;" edge="1" parent="1" source="Cfwt913eoUueuza_iOJh-35" target="Cfwt913eoUueuza_iOJh-33">
          <mxGeometry width="50" height="50" relative="1" as="geometry">
            <mxPoint x="154" y="300" as="sourcePoint" />
            <mxPoint x="204" y="250" as="targetPoint" />
          </mxGeometry>
        </mxCell>
        <mxCell id="Cfwt913eoUueuza_iOJh-56" value="" style="endArrow=none;html=1;rounded=0;entryX=0.5;entryY=0;entryDx=0;entryDy=0;exitX=0.5;exitY=1;exitDx=0;exitDy=0;" edge="1" parent="1" source="Cfwt913eoUueuza_iOJh-33" target="Cfwt913eoUueuza_iOJh-37">
          <mxGeometry width="50" height="50" relative="1" as="geometry">
            <mxPoint x="364" y="250" as="sourcePoint" />
            <mxPoint x="414" y="200" as="targetPoint" />
            <Array as="points">
              <mxPoint x="164" y="270" />
              <mxPoint x="454" y="270" />
            </Array>
          </mxGeometry>
        </mxCell>
      </root>
    </mxGraphModel>
  </diagram>
</mxfile>
